<svg width="16" height="15" viewBox="0 0 16 15" fill="none" xmlns="http://www.w3.org/2000/svg">
    <path d="M10.0606 4.81907L10.177 5.05466L10.4371 5.0924L15.1523 5.77652C15.1525 5.77654 15.1526 5.77656 15.1528 5.77659C15.2099 5.78531 15.2399 5.83501 15.2331 5.87878L15.2331 5.87878L15.2323 5.88432C15.2296 5.90293 15.2208 5.92141 15.2051 5.93685C15.205 5.93694 15.2049 5.93704 15.2048 5.93714L11.7931 9.25784L11.6045 9.44143L11.649 9.70085L12.4553 14.3912L12.4554 14.3915C12.4638 14.44 12.4314 14.4889 12.3784 14.498L12.3777 14.4982C12.3565 14.5018 12.3357 14.4979 12.3207 14.4899L12.3185 14.4887L8.09952 12.2743L7.86715 12.1524L7.63478 12.2743L3.41584 14.4887L3.41507 14.4891C3.39955 14.4973 3.38197 14.501 3.36436 14.4998C3.34676 14.4985 3.32993 14.4924 3.31578 14.4821C3.30164 14.4718 3.29077 14.4579 3.28429 14.442C3.27781 14.4261 3.27595 14.4087 3.27887 14.3918L3.27899 14.3912L4.08525 9.70085L4.12984 9.44143L3.94122 9.25784L0.528541 5.93624L0.528508 5.93621C0.510488 5.91867 0.500337 5.89489 0.500008 5.87014C0.499684 5.84569 0.508974 5.82193 0.526117 5.80401C0.541517 5.7886 0.560144 5.77964 0.579215 5.77692L0.580414 5.77675L5.29723 5.0924L5.55729 5.05466L5.6737 4.81907L7.78104 0.554036C7.78115 0.553805 7.78127 0.553574 7.78139 0.553344C7.80581 0.505529 7.86427 0.487205 7.90991 0.5097L7.91049 0.509985C7.92859 0.518872 7.9431 0.533445 7.95184 0.551181L7.95205 0.551615L10.0606 4.81907Z" stroke="#FF862F"/>
</svg>
